<!DOCTYPE svg PUBLIC "-//W3C//DTD SVG 1.1//EN" "http://www.w3.org/Graphics/SVG/1.1/DTD/svg11.dtd">
<!-- Uploaded to: SVG Repo, www.svgrepo.com, Transformed by: SVG Repo Mixer Tools -->
<svg version="1.1" id="Capa_1" xmlns="http://www.w3.org/2000/svg" xmlns:xlink="http://www.w3.org/1999/xlink" viewBox="0 0 60 60" xml:space="preserve" width="256px" height="256px" fill="#000000">
<g id="SVGRepo_bgCarrier" stroke-width="0"/>
<g id="SVGRepo_tracerCarrier" stroke-linecap="round" stroke-linejoin="round"/>
<g id="SVGRepo_iconCarrier"> <g> <rect x="13" y="14" style="fill:#62a5ec;" width="22" height="22"/> <path style="fill:#62a5ec;" d="M54,57H6v-3H3V6h3V3h48v3h3v48h-3V57z M8,55h44v-3h3V8h-3V5H8v3H5v44h3V55z"/> <polygon style="fill:#62a5ec;" points="35,25 35,36 24,36 24,47 46,47 46,25 "/> <g> <rect x="1" y="1" style="fill:#62a5ec;" width="6" height="6"/> <path style="fill:#62a5ec;" d="M8,8H0V0h8V8z M2,6h4V2H2V6z"/> </g> <g> <rect x="53" y="1" style="fill:#62a5ec;" width="6" height="6"/> <path style="fill:#62a5ec;" d="M60,8h-8V0h8V8z M54,6h4V2h-4V6z"/> </g> <g> <rect x="1" y="53" style="fill:#62a5ec;" width="6" height="6"/> <path style="fill:#62a5ec;" d="M8,60H0v-8h8V60z M2,58h4v-4H2V58z"/> </g> <g> <rect x="53" y="53" style="fill:#62a5ec;" width="6" height="6"/> <path style="fill:#62a5ec;" d="M60,60h-8v-8h8V60z M54,58h4v-4h-4V58z"/> </g> </g> </g>
</svg>